# File created by Blade
# Date/Time:  Wed Apr 08 14:55:03 2015
# Frame Rate: 120.000 fps
#------------------------------------------------------
:FULLY-SPECIFIED
:DEGREES
1796
root -3.397598 31.795697 -13.713296 16.576432 20.442350 -2.336118
Spine -10.192766 -3.113380 -0.190557
Head 0.411979 -5.322505 3.112476
LeftShoulder -13.583711 42.997124 12.382174
LeftArm 62.137207 18.628836 -65.994743
LeftForeArm -1.898229 0.000000 117.928334
LeftHand 3.201034 -0.000000 -6.410020
LeftHandThumb1 -26.253704 0.000000 33.147579
RightShoulder -1.554137 -4.974875 -19.918867
RightArm 22.813487 -37.142258 79.870893
RightForeArm 5.194549 -0.000000 111.924352
RightHand 9.597108 0.000000 3.959612
RightHandThumb1 -24.326973 -0.000000 -32.862282
LeftUpLeg -36.961689 -1.738571 7.236161
LeftLeg 13.862440 -0.000000 -0.000000
LeftFoot 0.767809 14.277803 -18.612020
LeftToeBase -5.214456 -0.000000 0.000000
RightUpLeg -6.063689 2.559208 1.261391
RightLeg 21.203045 -0.000000 -0.000000
RightFoot -19.485584 -11.928292 14.189943
RightToeBase -14.013410 -0.000000 0.000000
1797
root -3.470442 31.765072 -13.786515 16.611952 20.591931 -2.345640
Spine -10.226619 -2.869764 -0.309072
Head 0.513872 -5.740654 3.072448
LeftShoulder -13.659462 42.986544 12.224144
LeftArm 62.051531 18.726299 -66.189470
LeftForeArm -1.548167 0.000000 117.930314
LeftHand 3.243501 0.000000 -6.113400
LeftHandThumb1 -26.253704 0.000000 33.147579
RightShoulder -1.596596 -5.013510 -19.960306
RightArm 22.710019 -36.950222 79.884066
RightForeArm 5.232212 -0.000000 112.068044
RightHand 9.621821 -0.000000 3.985334
RightHandThumb1 -24.326973 -0.000000 -32.862282
LeftUpLeg -37.296837 -1.733366 7.324699
LeftLeg 14.060431 -0.000000 -0.000000
LeftFoot 0.776227 14.166302 -18.850154
LeftToeBase -5.060513 -0.000000 0.000000
RightUpLeg -5.847628 2.397956 1.367342
RightLeg 20.537353 -0.000000 -0.000000
RightFoot -19.796019 -11.833232 14.352524
RightToeBase -14.160286 -0.000000 0.000000
1798
root -3.549589 31.734295 -13.865534 16.621124 20.682554 -2.369425
Spine -10.189278 -2.816004 -0.383049
Head 0.529718 -5.925936 2.992476
LeftShoulder -14.131807 43.044005 11.781922
LeftArm 61.976908 18.769596 -66.388283
LeftForeArm -1.436833 -0.000000 117.945518
LeftHand 3.337830 -0.000000 -5.963824
LeftHandThumb1 -26.253704 0.000000 33.147579
RightShoulder -1.417367 -4.958565 -20.042965
RightArm 22.639093 -36.780258 79.894300
RightForeArm 5.235390 0.000000 112.209971
RightHand 9.551220 -0.000000 4.016211
RightHandThumb1 -24.326973 -0.000000 -32.862282
LeftUpLeg -37.628897 -1.614710 7.383550
LeftLeg 14.293154 -0.000000 -0.000000
LeftFoot 0.806723 14.005062 -19.090872
LeftToeBase -4.895052 -0.000000 0.000000
RightUpLeg -5.641282 2.270448 1.470927
RightLeg 19.896750 -0.000000 -0.000000
RightFoot -20.171179 -11.755449 14.394825
RightToeBase -12.831099 -0.000000 0.000000
1799
root -3.633859 31.704520 -13.948161 16.624698 20.717446 -2.424838
Spine -10.150386 -2.535835 -0.485742
Head 0.543758 -6.287322 2.953678
LeftShoulder -14.321379 43.043236 11.561001
LeftArm 61.809217 18.825467 -66.640860
LeftForeArm -1.337120 -0.000000 117.979595
LeftHand 3.425114 -0.000000 -6.037076
LeftHandThumb1 -26.253704 0.000000 33.147579
RightShoulder -1.362454 -4.949836 -20.126892
RightArm 22.556791 -36.592497 79.916218
RightForeArm 5.273587 -0.000000 112.336849
RightHand 9.536153 -0.000000 3.982680
RightHandThumb1 -24.326973 -0.000000 -32.862282
LeftUpLeg -37.984122 -1.421152 7.457909
LeftLeg 14.569464 -0.000000 -0.000000
LeftFoot 0.864667 13.830665 -19.386261
LeftToeBase -4.869717 -0.000000 0.000000
RightUpLeg -5.473918 2.155066 1.576344
RightLeg 19.271720 -0.000000 -0.000000
RightFoot -20.435354 -11.519815 14.468201
RightToeBase -12.354661 -0.000000 0.000000
1800
root -3.719794 31.675258 -14.031583 16.623883 20.721251 -2.515489
Spine -10.113264 -2.195601 -0.559136
Head 0.552107 -6.657407 2.900293
LeftShoulder -14.494751 43.112067 11.343149
LeftArm 61.668422 18.770337 -66.927821
LeftForeArm -1.248785 -0.000000 117.991790
LeftHand 3.586783 -0.000000 -6.430309
LeftHandThumb1 -26.253704 0.000000 33.147579
RightShoulder -1.312516 -4.944792 -20.218281
RightArm 22.423996 -36.417182 79.948796
RightForeArm 5.267633 -0.000000 112.483958
RightHand 9.523634 -0.000000 3.935747
RightHandThumb1 -24.326973 -0.000000 -32.862282
LeftUpLeg -38.368356 -1.173447 7.555133
LeftLeg 14.894871 -0.000000 -0.000000
LeftFoot 0.914612 13.583817 -19.697488
LeftToeBase -4.706175 -0.000000 0.000000
RightUpLeg -5.296085 2.101776 1.700222
RightLeg 18.560975 -0.000000 -0.000000
RightFoot -20.696612 -11.375095 14.365982
RightToeBase -11.962019 -0.000000 0.000000
1801
root -3.808245 31.645544 -14.118738 16.599289 20.758551 -2.631734
Spine -10.042094 -1.854787 -0.599767
Head 0.532618 -7.047308 2.863556
LeftShoulder -14.628926 43.134904 11.176131
LeftArm 61.487918 18.827971 -67.225076
LeftForeArm -1.240999 -0.000000 118.007680
LeftHand 3.661847 -0.000000 -6.496370
LeftHandThumb1 -26.253704 0.000000 33.147579
RightShoulder -1.279581 -4.934784 -20.315833
RightArm 22.315205 -36.235531 79.925679
RightForeArm 5.319983 -0.000000 112.637976
RightHand 9.476221 0.000000 3.868653
RightHandThumb1 -24.326973 -0.000000 -32.862282
LeftUpLeg -38.777727 -0.951397 7.692764
LeftLeg 15.269333 -0.000000 -0.000000
LeftFoot 0.978148 13.335542 -20.013125
LeftToeBase -4.503177 -0.000000 0.000000
RightUpLeg -5.108004 2.021062 1.853664
RightLeg 17.834068 -0.000000 -0.000000
RightFoot -20.897019 -11.285859 14.122783
RightToeBase -11.981876 -0.000000 0.000000
1802
root -3.899108 31.616862 -14.208399 16.578510 20.821393 -2.783935
Spine -9.983019 -1.501496 -0.589702
Head 0.508304 -7.452658 2.792902
LeftShoulder -14.710144 43.208985 11.021068
LeftArm 61.319812 18.874223 -67.470476
LeftForeArm -1.238815 -0.000000 118.051045
LeftHand 3.632821 -0.000000 -6.353871
LeftHandThumb1 -26.253704 0.000000 33.147579
RightShoulder -1.271295 -4.944652 -20.420657
RightArm 22.228957 -36.045553 79.892577
RightForeArm 5.363487 -0.000000 112.770792
RightHand 9.502388 -0.000000 3.871955
RightHandThumb1 -24.326973 -0.000000 -32.862282
LeftUpLeg -39.247913 -0.712048 7.856329
LeftLeg 15.707457 -0.000000 -0.000000
LeftFoot 1.078705 13.049731 -20.366478
LeftToeBase -4.368850 -0.000000 0.000000
RightUpLeg -4.946691 1.897822 2.044148
RightLeg 17.109775 -0.000000 -0.000000
RightFoot -21.082479 -11.073495 13.944080
RightToeBase -12.010415 -0.000000 0.000000
1803
root -3.991802 31.586219 -14.294489 16.493068 20.898287 -2.960803
Spine -9.851292 -1.153679 -0.557295
Head 0.457316 -7.840842 2.750255
LeftShoulder -14.819863 43.338568 10.856577
LeftArm 61.211127 18.907852 -67.706504
LeftForeArm -1.227265 -0.000000 118.078815
LeftHand 3.605316 0.000000 -6.389216
LeftHandThumb1 -26.253704 0.000000 33.147579
RightShoulder -1.263635 -4.920313 -20.533549
RightArm 22.098018 -35.873061 79.866748
RightForeArm 5.388202 0.000000 112.931523
RightHand 9.448117 -0.000000 3.891378
RightHandThumb1 -24.326973 -0.000000 -32.862282
LeftUpLeg -39.691902 -0.412502 8.010555
LeftLeg 16.205080 -0.000000 -0.000000
LeftFoot 1.193986 12.676710 -20.722211
LeftToeBase -4.231133 -0.000000 0.000000
RightUpLeg -4.737896 1.791926 2.281709
RightLeg 16.427778 -0.000000 -0.000000
RightFoot -21.243530 -11.008408 13.605114
RightToeBase -11.667477 -0.000000 0.000000
1804
root -4.090191 31.556694 -14.383346 16.415147 21.015534 -3.163448
Spine -9.724233 -0.842727 -0.490970
Head 0.389982 -8.233044 2.711190
LeftShoulder -14.920212 43.421666 10.721825
LeftArm 61.023901 18.957504 -67.920360
LeftForeArm -1.233049 -0.000000 118.126845
LeftHand 3.648005 0.000000 -6.311376
LeftHandThumb1 -26.253704 0.000000 33.147579
RightShoulder -1.270587 -5.020440 -20.631417
RightArm 22.151497 -35.693472 79.721975
RightForeArm 5.429064 0.000000 113.072873
RightHand 9.430444 -0.000000 3.919436
RightHandThumb1 -24.326973 -0.000000 -32.862282
LeftUpLeg -40.181970 -0.245023 8.274401
LeftLeg 16.729285 -0.000000 -0.000000
LeftFoot 1.301993 12.409930 -21.187466
LeftToeBase -4.184031 -0.000000 0.000000
RightUpLeg -4.582351 1.668358 2.567722
RightLeg 15.801502 -0.000000 -0.000000
RightFoot -21.434264 -10.820546 13.485157
RightToeBase -11.338971 -0.000000 0.000000
1805
root -4.187094 31.524570 -14.468809 16.286113 21.176297 -3.398740
Spine -9.553827 -0.538601 -0.364855
Head 0.306279 -8.630534 2.645211
LeftShoulder -15.005307 43.547410 10.577646
LeftArm 60.881903 18.989454 -68.112155
LeftForeArm -1.328526 -0.000000 118.162992
LeftHand 3.811449 -0.000000 -6.149309
LeftHandThumb1 -26.253704 0.000000 33.147579
RightShoulder -1.296518 -5.021415 -20.765762
RightArm 22.069277 -35.524772 79.670667
RightForeArm 5.492960 -0.000000 113.211927
RightHand 9.371036 -0.000000 3.951939
RightHandThumb1 -24.326973 -0.000000 -32.862282
LeftUpLeg -40.697001 0.079704 8.462133
LeftLeg 17.374551 -0.000000 -0.000000
LeftFoot 1.466409 11.908965 -21.625811
LeftToeBase -4.212116 -0.000000 0.000000
RightUpLeg -4.383742 1.481310 2.900980
RightLeg 15.169132 -0.000000 -0.000000
RightFoot -21.597164 -10.731340 13.181390
RightToeBase -10.964413 -0.000000 0.000000
1806
root -4.284076 31.493363 -14.554141 16.162726 21.400959 -3.611152
Spine -9.380922 -0.337144 -0.227703
Head 0.240981 -8.967358 2.552812
LeftShoulder -15.046979 43.578290 10.479767
LeftArm 60.566014 19.025299 -68.374660
LeftForeArm -1.285648 -0.000000 118.254085
LeftHand 3.774056 -0.000000 -6.183655
LeftHandThumb1 -26.253704 0.000000 33.147579
RightShoulder -1.263121 -4.991385 -20.908697
RightArm 21.938803 -35.374724 79.634056
RightForeArm 5.500940 -0.000000 113.355153
RightHand 9.406564 -0.000000 3.934541
RightHandThumb1 -24.326973 -0.000000 -32.862282
LeftUpLeg -41.223043 0.240801 8.702242
LeftLeg 18.008475 -0.000000 -0.000000
LeftFoot 1.623537 11.543144 -22.175999
LeftToeBase -4.094161 -0.000000 0.000000
RightUpLeg -4.188648 1.208385 3.243083
RightLeg 14.539248 -0.000000 -0.000000
RightFoot -21.782206 -10.688869 12.928735
RightToeBase -10.532882 -0.000000 0.000000
